<svg xmlns="http://www.w3.org/2000/svg" xmlns:xlink="http://www.w3.org/1999/xlink" xml:space="preserve" version="1.1" style="shape-rendering:geometricPrecision;text-rendering:geometricPrecision;image-rendering:optimizeQuality;" viewBox="0 0 846.66 1058.325" x="0px" y="0px" fill-rule="evenodd" clip-rule="evenodd"><defs><style type="text/css">
   
  </style></defs><g><path fill="white" d="M723.61 310.93l-171.94 0c-81.41,0 -109.78,74.97 -128.34,142.57 -18.56,-67.61 -46.94,-142.57 -128.34,-142.57l-171.92 0 28.27 -163.99c21.39,-117.43 522.62,-117.43 544,0l28.27 163.99zm-659.23 -9.58c23.43,0 42.42,18.99 42.42,42.42 0,18.89 -12.33,34.89 -29.39,40.39 0,13.24 7.44,24.36 21.72,24.36l23.94 0 0 -71.52 171.92 0c80.26,0 99.46,109.09 115.82,170.53 3.51,12.71 21.56,12.56 25.05,0 16.34,-61.43 35.56,-170.53 115.81,-170.53l171.94 0 0 71.52 23.93 0c14.28,0 21.72,-11.12 21.72,-24.36 -17.06,-5.5 -29.39,-21.5 -29.39,-40.39 0,-23.43 18.99,-42.42 42.42,-42.42 23.43,0 42.43,18.99 42.43,42.42 0,18.89 -12.34,34.89 -29.39,40.39 0,27.69 -19.27,50.43 -47.79,50.43l-23.93 0 0 156.13 -600.54 0 0 -156.13 -23.94 0c-28.52,0 -47.79,-22.74 -47.79,-50.43 -17.05,-5.5 -29.39,-21.5 -29.39,-40.39 0,-23.43 19,-42.42 42.43,-42.42zm314.54 336.87l88.82 0 0 35.08 -88.82 0 0 -35.08zm-153.02 -173.4c20.93,0 37.9,16.97 37.9,37.91 0,20.93 -16.97,37.9 -37.9,37.9 -20.94,0 -37.91,-16.97 -37.91,-37.9 0,-20.94 16.97,-37.91 37.91,-37.91zm394.87 0c20.94,0 37.91,16.97 37.91,37.91 0,20.93 -16.97,37.9 -37.91,37.9 -20.93,0 -37.9,-16.97 -37.9,-37.9 0,-20.94 16.97,-37.91 37.9,-37.91zm29.97 -207.09l-20.27 -111.35 -195.81 0 0 134.69c72.02,-0.65 144.06,-8.35 216.08,-23.34zm-238.71 -111.35l-195.82 0 -20.27 111.35c72.03,14.64 144.06,22.49 216.09,23.32l0 -134.67zm-154.42 553.73l0 57.73c0,16.47 -13.47,29.95 -29.94,29.95l-29.8 0c-16.47,0 -29.95,-13.48 -29.95,-29.95l0 -57.73 -48.76 0c-16.82,0 -30.55,-13.73 -30.55,-30.55l0 -25.66c0,-16.82 13.73,-30.55 30.55,-30.55l608.36 0c16.81,0 30.54,13.73 30.54,30.55l0 25.66c0,16.82 -13.73,30.55 -30.54,30.55l-48.76 0 0 57.73c0,16.47 -13.47,29.95 -29.94,29.95l-29.8 0c-16.47,0 -29.95,-13.48 -29.95,-29.95l0 -57.73 -331.46 0z"/></g></svg>